<?xml version="1.0" encoding="UTF-8" standalone="no"?>
<!DOCTYPE svg PUBLIC "-//W3C//DTD SVG 1.1//EN" "http://www.w3.org/Graphics/SVG/1.1/DTD/svg11.dtd">
<svg width="100%" height="100%" viewBox="0 0 817 828" version="1.1" xmlns="http://www.w3.org/2000/svg" xmlns:xlink="http://www.w3.org/1999/xlink" xml:space="preserve" xmlns:serif="http://www.serif.com/" style="fill-rule:evenodd;clip-rule:evenodd;stroke-linejoin:round;stroke-miterlimit:10;">
    <g transform="matrix(1,0,0,1,-551.864,-126.364)">
        <g>
            <g transform="matrix(3.79341,0,0,3.79287,157.034,-34.54)">
                <path d="M135.627,168.664C163.035,104.013 136.273,80.77 136.273,80.77L154.111,62.495C170.777,84.384 197.806,76.509 200.918,74.382C204.031,72.256 204.323,66.07 204.323,66.07L212.298,65.393L220.223,66.07C220.223,66.07 220.032,73.238 223.606,74.382C244.06,80.931 256.174,75.686 269.42,63.654L287.147,83.037C287.147,83.037 259.747,107.126 288.49,168.664" style="fill:none;fill-rule:nonzero;stroke:rgb(3,192,60);stroke-width:4px;"/>
            </g>
            <g transform="matrix(3.79341,0,0,3.79287,157.034,-34.54)">
                <path d="M123.012,172.132C136.013,142.154 142.998,106.957 120.492,79.596C135.962,62.375 135.962,62.375 151.432,45.155C169.523,61.957 193.87,80.102 201.848,44.423C206.864,44.504 207.1,44.504 212.117,44.586C217.039,44.504 217.039,44.504 221.961,44.423C229.758,79.964 253.534,62.094 271.428,45.155C286.607,62.375 286.607,62.375 301.786,79.596C279.923,106.685 286.44,141.252 298.798,171.002" style="fill:none;fill-rule:nonzero;stroke:rgb(3,192,60);stroke-width:4px;"/>
            </g>
            <g transform="matrix(3.79341,0,0,3.79287,157.034,-34.54)">
                <path d="M122.61,207.83C180.469,194.791 238.452,193.955 296.574,206.747C295.295,211.975 293.811,216.333 292.317,218.46C278.73,237.804 263.932,240.09 242.292,244.685C231.043,247.073 222.212,253.159 212,258.535C201.543,253.134 192.581,247.071 181.127,244.685C159.222,240.121 144.053,237.892 130.143,218.46C127.977,215.434 125.201,211.785 122.61,207.83" style="fill:none;fill-rule:nonzero;stroke:rgb(3,192,60);stroke-width:4px;"/>
            </g>
            <g transform="matrix(3.79341,0,0,3.79287,157.034,-34.54)">
                <path d="M106.083,176.635L116.859,209.36C126.674,207.115 136.498,204.868 146.416,203.133C156.518,201.364 166.675,199.821 176.885,198.854C211.184,195.607 244.811,197.384 278.734,203.176C288.992,204.927 299.161,207.176 309.322,209.423L317.265,175.857C249.912,156.638 173.365,157.082 106.083,176.635Z" style="fill:none;fill-rule:nonzero;stroke:rgb(3,192,60);stroke-width:4px;"/>
            </g>
        </g>
    </g>
</svg>
